<svg xmlns="http://www.w3.org/2000/svg" width="54.5" height="62" viewBox="0 0 54.5 62"><defs><style>.a{fill:none;stroke:#bfda59;stroke-width:2px;}</style></defs><path class="a" d="M0,54.375A5.626,5.626,0,0,0,5.625,60h41.25A5.626,5.626,0,0,0,52.5,54.375V22.5H0ZM37.5,31.406A1.41,1.41,0,0,1,38.906,30h4.688A1.41,1.41,0,0,1,45,31.406v4.687A1.41,1.41,0,0,1,43.594,37.5H38.906A1.41,1.41,0,0,1,37.5,36.094Zm0,15A1.41,1.41,0,0,1,38.906,45h4.688A1.41,1.41,0,0,1,45,46.406v4.688A1.41,1.41,0,0,1,43.594,52.5H38.906A1.41,1.41,0,0,1,37.5,51.094Zm-15-15A1.41,1.41,0,0,1,23.906,30h4.688A1.41,1.41,0,0,1,30,31.406v4.687A1.41,1.41,0,0,1,28.594,37.5H23.906A1.41,1.41,0,0,1,22.5,36.094Zm0,15A1.41,1.41,0,0,1,23.906,45h4.688A1.41,1.41,0,0,1,30,46.406v4.688A1.41,1.41,0,0,1,28.594,52.5H23.906A1.41,1.41,0,0,1,22.5,51.094Zm-15-15A1.41,1.41,0,0,1,8.906,30h4.688A1.41,1.41,0,0,1,15,31.406v4.687A1.41,1.41,0,0,1,13.594,37.5H8.906A1.41,1.41,0,0,1,7.5,36.094Zm0,15A1.41,1.41,0,0,1,8.906,45h4.688A1.41,1.41,0,0,1,15,46.406v4.688A1.41,1.41,0,0,1,13.594,52.5H8.906A1.41,1.41,0,0,1,7.5,51.094ZM46.875,7.5H41.25V1.875A1.881,1.881,0,0,0,39.375,0h-3.75A1.881,1.881,0,0,0,33.75,1.875V7.5h-15V1.875A1.881,1.881,0,0,0,16.875,0h-3.75A1.881,1.881,0,0,0,11.25,1.875V7.5H5.625A5.626,5.626,0,0,0,0,13.125V18.75H52.5V13.125A5.626,5.626,0,0,0,46.875,7.5Z" transform="translate(1 1)"/></svg>